<?xml version="1.0" encoding="UTF-8"?>
<svg id="Layer_2" data-name="Layer 2" xmlns="http://www.w3.org/2000/svg" viewBox="0 0 275.23 306.77">
  <defs>
    <style>
      .cls-1 {
        fill: #0000000;
      }

      .cls-1, .cls-2, .cls-3, .cls-4 {
        stroke-width: 0px;
      }

      .cls-2 {
        fill: #000000;
      }

      .cls-3 {
        fill: #000000;
      }

      .cls-4 {
        fill: #000000;
      }
    </style>
  </defs>
  <g id="_Слой_1" data-name="Слой 1">
    <g>
      <path class="cls-4" d="M266.82,117.37l-63.62-48.34-81.31,48.4,66.89,50.82-35.45,21.09,39.96,30.36c1.67,1.27,1.53,3.82-.28,4.9l-72.79,43.3c-2.87,1.71-6.49,1.5-9.16-.52l-39.05-29.67-18.88,11.24c-1.8,1.07-1.95,3.63-.28,4.9l67.45,51.25c2.66,2.02,6.28,2.23,9.16.52l134.65-80.13.59-.35c6.44-3.83,10.4-10.77,10.41-18.27l.12-72.51c.01-6.67-3.1-12.96-8.41-16.99Z"/>
      <path class="cls-2" d="M111.61,267.8l-39.59-30.08,81.32-48.37,40.48,30.75c1.42,1.08,1.3,3.26-.24,4.17l-73.93,43.98c-2.52,1.5-5.7,1.32-8.03-.45Z"/>
      <polygon class="cls-1" points="203.2 69.03 159.75 36.01 78.43 84.41 121.89 117.43 203.2 69.03"/>
      <path class="cls-3" d="M222.35,52.91L154.91,1.67c-2.66-2.02-6.28-2.23-9.16-.52L11.09,81.27l-.6.36C4.07,85.46.12,92.39.11,99.88L0,172.4c-.01,6.67,3.1,12.96,8.41,16.99l63.6,48.33,81.32-48.37-66.89-50.82,35.45-21.09-39.96-30.36c-1.67-1.27-1.53-3.82.28-4.9l72.79-43.33c2.87-1.71,6.5-1.51,9.16.52l39.05,29.67,18.87-11.23c1.8-1.07,1.95-3.63.28-4.9Z"/>
    </g>
  </g>
</svg>